<svg id="图层_1" data-name="图层 1" xmlns="http://www.w3.org/2000/svg" viewBox="0 0 1920 1080"><defs><style>.cls-1{fill:#636262;}</style></defs><title>灰色</title><path class="cls-1" d="M537.21,330.35c-8.77-23.82-21.56-46.22-38.08-65-5.47-6.24-11.28-12.17-16.86-18.32a2.83,2.83,0,0,1-.33-2.43,2.3,2.3,0,0,1,2-.86c90,13.76,184.91,76,208.27,168.81,27.29,108.37-48.7,225.32-143,273.11-58,29.4-126.34,36.09-189.07,19.18-1.56-.43-3.12-.86-4.68-1.31-52-15.07-106.11-48.26-137-93.71-2-2.95-2.95-6.64-4.2-10.06-.51-1.38,1.11-2.22,3-1.41,9.92,4.28,19.1,10.07,29.15,14.17,47.18,19.27,102.45,21.13,151,5.79C458,599.12,506.15,555.78,532.42,498c16.13-35.47,21.76-75.2,17.48-113.87A229,229,0,0,0,537.21,330.35Z"/><path class="cls-1" d="M533.48,430.68c-2.55,58.14-40.25,114.78-88.24,146a188.57,188.57,0,0,1-19.81,11.24c30.16-32.64,41.57-81.52,29-124.14s-48.75-77.44-91.82-88.43-91.48,2.26-123,33.63c-3.31,3.3-6.54,6.85-10.72,8.94s-9.68,2.35-13.2-.73c-5.36-4.7-3.14-13.39-.24-19.91,36.45-81.87,117.18-142.36,206-154.34,9.46-1.28,19.28-2,28.42.77,11.22,3.43,20.22,11.8,28.07,20.52,31.89,35.39,52.59,81.57,56.31,129.15.2,2.58.27,5.14.35,7.72"/><path class="cls-1" d="M1283,301.17c10.21.42,20,1.51,23.16,1.51,7.26,0,9.23,12.22,11.27,17.35l10.5,26.5,21,53,32.64,82.39c6.74,17,13.24,34.08,20.26,51,3.65,8.78,7.34,17.59,11.48,26.16,2.46,5.1,8.15,14.81,2.69,19.88a13.48,13.48,0,0,1-4.43,2.39c-7,2.71-14.86,4.8-21.44,8.46-1.71,1-3,.8-3.71-1.08-11.25-28-22.13-56.22-33.5-84.17-.25-.63-1.61-1.13-2.46-1.14-38.78-.51-77.58.06-116.37,0-2.49,0-3.32.74-3.31,3.22,0,1.43-.8,2.89-1.32,4.3-5.69,15.39-11.81,30.61-18,45.82-2.58,6.39-10.09,37-19,33.27-5.41-2.24-29-7.81-26.45-15.74.9-2.75,2-5.43,3.12-8.11,28.75-69.19,55.59-139.24,83.34-208.84,2.2-5.52,5-11.06,6.4-16.84a1.64,1.64,0,0,0-.8-1.39c-2.61-.72-2.85-2.92-2.88-4.92q-.18-13.55,0-27.09C1255.26,301.2,1269.46,300.6,1283,301.17Zm9.91,53.16c-1.13,1.62-2.22,2.7-2.74,4-2.16,5.46-4.06,11-6.21,16.47-2.06,5.21-4.41,10.3-6.48,15.5-3,7.55-5.83,15.15-8.76,22.72-1,2.46-2,4.9-3,7.33-1.26,3-2.63,5.91-3.85,8.9-1,2.44-1.82,4.94-2.76,7.4-1.17,3.1-2.35,6.2-3.58,9.28-1.43,3.54-2.91,7.06-4.37,10.59-1.4,3.35-2.88,6.66-4.21,10-1.61,4.1-1.58,4.67,2.56,4.67q42.18,0,84.35.13a14.13,14.13,0,0,0,3.57-.3,1.92,1.92,0,0,0,1.06-1.55,32.18,32.18,0,0,0-1.61-4.86c-2.28-5.62-4.67-11.2-6.9-16.83-2-5.07-3.84-10.21-5.76-15.31-.84-2.23-1.63-4.47-2.54-6.67-1.45-3.51-3-7-4.47-10.49-1.31-3.21-2.53-6.46-3.78-9.69-.8-2.06-1.56-4.14-2.41-6.18-1.3-3.11-2.72-6.18-4-9.32-1.37-3.38-2.59-6.83-3.93-10.23-1.18-3-2.48-6-3.65-9s-2.27-6.27-3.48-9.38C1295.12,359.36,1294.13,357.2,1292.9,354.33Z"/><path class="cls-1" d="M1556.49,303.93h21.42c4.86,0,5.77.72,7.46,5.19,2.44,6.46,5,12.88,7.52,19.31,1.62,4.11,3.23,8.23,4.9,12.31,2.19,5.34,4.52,10.63,6.66,16s4,10.54,6,15.78,4,10.18,6.1,15.25c1.13,2.78,2.35,5.52,3.43,8.31,2,5.26,3.92,10.59,6,15.82,2.16,5.39,4.51,10.69,6.74,16.05.92,2.2,1.72,4.46,2.56,6.7,2,5.42,4,10.89,6.13,16.27,2.09,5.21,4.44,10.32,6.59,15.51,1.14,2.76,2,5.64,3.13,8.41,2.39,5.91,4.9,11.77,7.29,17.68.83,2.05,1.44,4.19,2.2,6.26,1.19,3.26,2.36,6.52,3.66,9.73s2.77,6.21,4.06,9.36c1.16,2.83,2.16,5.73,3.27,8.58,2.36,6.06,4.78,12.09,7.12,18.15,2.09,5.42,4.06,10.9,6.15,16.32,1.76,4.55,3.62,9.07,5.42,13.6,1,2.45.28,3.84-2.16,4.81-6.26,2.51-12.5,5.1-18.76,7.62a59.5,59.5,0,0,1-6.49,2.39c-1.84.5-3.12-.1-3.92-2.23-2.2-5.89-4.74-11.66-7.09-17.49-.89-2.22-1.61-4.5-2.47-6.74-2-5.25-4-10.51-6.06-15.74s-4.23-10.39-6.3-15.6c-1.39-3.49-2.67-7-4.07-10.51-1.28-3.17-2.66-6.28-4-9.43a10.52,10.52,0,0,1-1-2.63c-.3-2.4-1.74-3.42-4-3.6-.86-.07-1.72-.05-2.58-.05l-113,.27c-3.42,0-4.59,1.08-5.77,4.32-2.14,5.86-4.52,11.62-6.77,17.44-2.07,5.33-4.09,10.68-6.16,16-1.11,2.87-2.3,5.72-3.44,8.57-1.41,3.49-2.78,7-4.21,10.45-2.31,5.61-4.67,11.19-7,16.79-1,2.52-2.06,5.05-3,7.62-1.29,3.61-3.2,4.55-6.9,3.2-2.09-.76-4.19-1.49-6.23-2.34q-8-3.37-16-6.84c-1.59-.69-3.88-1.13-4.47-2.34-.5-1.05,1-3,1.57-4.63,2-5.33,3.81-10.71,5.9-16s4.48-10.3,6.56-15.52,3.89-10.54,5.89-15.79c.87-2.31,1.93-4.54,2.84-6.83,2.62-6.59,5.2-13.2,7.8-19.79,1.73-4.37,3.42-8.74,5.21-13.08,3-7.3,6.16-14.56,9.12-21.89,2.11-5.22,4-10.55,6-15.8,1.18-3,2.59-6,3.8-9,2.09-5.23,4.08-10.5,6.15-15.74,1.22-3.1,2.51-6.18,3.75-9.28,1.52-3.8,3-7.63,4.53-11.42,2.1-5.12,4.31-10.19,6.37-15.33,2.12-5.32,4.1-10.7,6.18-16,1.22-3.11,2.57-6.16,3.8-9.27,2.13-5.39,4.2-10.81,6.35-16.2.63-1.58,1.56-3.06,2.15-4.66.68-1.81.72-3.41-1.92-3.63-1.75-.15-2.46-1.32-2.45-3,0-9.2,0-18.41,0-27.61,0-2.49,2.23-4.06,5.56-4.08,7.57,0,15.14,0,22.71,0Zm8.92,49.21a14.39,14.39,0,0,0-1,1.51c-2,5.35-4,10.7-6,16-.83,2.24-1.63,4.48-2.53,6.69-2.43,6-4.93,12-7.35,18-1.88,4.67-3.68,9.38-5.5,14.08-.83,2.14-1.53,4.33-2.43,6.45-1.39,3.28-3,6.48-4.33,9.77-1.57,3.77-3,7.59-4.5,11.39-1.13,2.86-2.29,5.7-3.41,8.55q-3.22,8.22-6.42,16.45a55.46,55.46,0,0,1-2.08,5.49c-1.85,3.56-1.59,4.09,2.56,4.18h1l85.42.13c3.73,0,4.35-1.17,2.71-4.5-1.43-2.9-2.66-5.91-3.83-8.92-2.13-5.49-4.15-11-6.24-16.52q-1.27-3.35-2.66-6.65c-1.35-3.21-2.78-6.37-4.1-9.59-1.4-3.45-2.71-6.95-4.07-10.42s-2.75-7-4.11-10.48c-1.91-4.93-3.76-9.88-5.73-14.79-2-5.11-4.28-10.15-6.31-15.27-2.17-5.48-4.14-11-6.32-16.51A47.5,47.5,0,0,0,1565.41,353.14Z"/><path class="cls-1" d="M912.68,441.21c.44-41.34,17.57-83.9,48.78-111.42,24.82-21.9,58.08-32.38,91-26.82,33.76,5.7,56.42,26.44,76.93,52.17,1.67,2.09,1.65,3.45-.5,4.9-5.94,4-12,8-18,11.91-1.79,1.17-3.64,2.23-5.44,3.38-2.65,1.7-4.14,1.34-5.84-1.25a86.71,86.71,0,0,0-21.57-23,83.35,83.35,0,0,0-22.66-11.68c-22.53-7.56-48.41-.85-67.05,13.14-18,13.5-30.28,33.8-36.16,55.52-12.41,45.87-.11,104.53,43,130.7a74.5,74.5,0,0,0,101-22.92c3.37-5.15,6.11-7.28,11.76-4.24a149.27,149.27,0,0,1,21.65,14.17c6.28,5-23.47,30.81-26.82,33.48-17.65,14.06-39.09,23.3-61.76,24.51-33.8,1.8-68.66-12.26-90.4-38.51-23.7-28.6-37.7-63.78-38-101.15C912.67,443.12,912.67,442.16,912.68,441.21Z"/><path class="cls-1" d="M273.64,685.05l.06,0c8.95,7.47,21.23,12.63,31.74,17.51a290.32,290.32,0,0,0,111.29,26.73c52.36,1.87,106.81-10.83,152.42-36.82,50.47-28.75,91.45-70.65,117-123.09a280.48,280.48,0,0,0,19.69-54.26c.64-2.56,1.14-5.16,1.77-7.72a14.6,14.6,0,0,1,.88-2.14l.81,0a16.64,16.64,0,0,1,.56,3.16,212.08,212.08,0,0,1-4.1,38.69c-11.47,57.84-40.41,113-86,151.12-49.65,41.46-110.77,64-175.66,61.63a263,263,0,0,1-30.81-2.94c-52-8.14-103.67-32.89-140.37-71C272.75,685.74,273.4,685.19,273.64,685.05Z"/><path class="cls-1" d="M847.83,441.63V577.36c0,.77,0,1.55,0,2.32-.06,3.69-.52,4.16-4.2,4.14-8.6,0-17.2-.15-25.8-.09-2.52,0-3.42-1.11-3.43-3.39,0-.86,0-1.72,0-2.58V304.5c0-4.27,0-4.26,4.33-4.28l25-.13c3.94,0,4.09.1,4.09,4Z"/><path class="cls-1" d="M823.38,636.57v71.08H809V636.57Z"/><path class="cls-1" d="M911.4,685.87c-3.77,13.88-15,23.13-33,23.13-20.44,0-36.53-15-36.53-36.89s16.09-36.89,36.75-36.89c16.44,0,27.29,8,31.86,20.31L897.81,662c-2.39-8.24-8.44-14.33-19.29-14.33-13,0-21.8,9.48-21.8,24.48s8.9,24.48,21.57,24.48c11.76,0,17.92-6.43,20-15.91Z"/><path class="cls-1" d="M971.56,690.16H941.31l-6.74,17.49H920.19l28.54-71.08h16.09l28.89,71.08h-15.3Zm-26-10.94h21.69l-10.73-27.3H956Z"/><path class="cls-1" d="M1057.63,707.65c-1.94-1.81-3.08-7.22-3.76-14-.8-9.7-4.23-14.78-12.68-14.78H1023.5v28.77h-14.16V636.57h34.94c18.26,0,27,8,27,20.42,0,9.14-8.45,16-18.49,16.59,7.87,1.46,12.78,7.55,14.27,15.9,1.94,11.28,4.22,15,7.3,17.38v.79Zm-34.13-39.71h18.38c10.27,0,15.18-3.27,15.18-9.93,0-6.43-4.57-9.93-14.84-9.93H1023.5Z"/><path class="cls-1" d="M1090.17,678.54v-42h14.38v40c0,13,6.28,20.31,17.58,20.31s17.7-7.33,17.7-20.31v-40h14.27v42c0,20.76-14.73,30.46-32,30.46S1090.17,699.3,1090.17,678.54Z"/><path class="cls-1" d="M1178.18,684.29c5.25,8.69,15,13.2,25,13.2,9.13,0,16-3.27,16-9.47,0-5.19-4.45-6.89-10.5-8.24l-16.21-3.27c-11-2.26-19.64-7.78-19.64-19.63,0-12.86,11.19-21.66,28.09-21.66,13.92,0,24.08,5.64,30.36,13.54l-9.7,9.25c-3.77-6.43-10.5-11.28-20.66-11.28-8,0-13.7,3.38-13.7,9.25,0,5.07,4.22,6.65,9.93,7.89l14.95,3.16c13.47,2.82,21.47,8.46,21.47,20.42,0,13.77-13.48,21.55-30.37,21.55-15,0-27.28-5.42-34-14.44Z"/><path class="cls-1" d="M1271.79,707.65V649h-28.2V636.57h71V649h-28.54v58.67Z"/><path class="cls-1" d="M1369.05,690.16H1338.8l-6.74,17.49h-14.38l28.54-71.08h16.1l28.88,71.08h-15.3Zm-26-10.94h21.69L1354,651.92h-.46Z"/><path class="cls-1" d="M1455.12,707.65c-1.94-1.81-3.08-7.22-3.76-14-.8-9.7-4.23-14.78-12.68-14.78H1421v28.77h-14.16V636.57h34.94c18.26,0,27,8,27,20.42,0,9.14-8.45,16-18.49,16.59,7.87,1.46,12.78,7.55,14.27,15.9,1.94,11.28,4.22,15,7.3,17.38v.79ZM1421,667.94h18.38c10.27,0,15.18-3.27,15.18-9.93,0-6.43-4.56-9.93-14.84-9.93H1421Z"/><path class="cls-1" d="M1510.83,707.65V649h-28.19V636.57h71V649H1525.1v58.67Z"/><path class="cls-1" d="M1559.35,692.19h15.53v15.46h-15.53Z"/><path class="cls-1" d="M1641.43,690.16h-30.25l-6.74,17.49h-14.38l28.54-71.08h16.09l28.88,71.08h-15.29Zm-26-10.94h21.69l-10.73-27.3h-.46Z"/><path class="cls-1" d="M1693.6,636.57v71.08h-14.39V636.57Z"/></svg>